<svg xmlns="http://www.w3.org/2000/svg" viewBox="0 0 350 350" role="img" aria-labelledby="title">
  <title>Rounded P reference mark</title>
  <rect width="350" height="350" fill="#211f20" />
  <g
    fill="none"
    stroke="#f7f7f7"
    stroke-linecap="round"
    stroke-linejoin="round"
    stroke-width="8.5"
  >
    <path d="M126 105h41c18.5 0 33.5 15 33.5 33.5S185.5 172 167 172h-15c-7.2 0-13 5.8-13 13v20" />
    <path d="M126 141h63" />
    <path d="M126 141v56c0 7.2 5.8 13 13 13s13-5.8 13-13v-24" />
    <path d="M200 145c13.2 2.8 24 15.4 24 31.5 0 18.8-15.2 34-34 34h-18c-7.2 0-13 5.8-13 13v21" />
  </g>
</svg>
